<mxfile host="app.diagrams.net" modified="2023-11-05T16:45:53.956Z" agent="Mozilla/5.0 (Windows NT 10.0; Win64; x64) AppleWebKit/537.36 (KHTML, like Gecko) Chrome/119.0.0.0 Safari/537.36" etag="o549Ego2sNnDtytIy_N7" version="22.0.8" type="device">
  <diagram name="Page-1" id="2cc2dc42-3aac-f2a9-1cec-7a8b7cbee084">
    <mxGraphModel dx="1764" dy="1516" grid="0" gridSize="10" guides="1" tooltips="1" connect="1" arrows="1" fold="1" page="1" pageScale="1" pageWidth="850" pageHeight="1100" background="none" math="0" shadow="0">
      <root>
        <mxCell id="0" />
        <mxCell id="1" parent="0" />
        <mxCell id="f2NwAQb8BhlGTxGuKgZ1-5" value="&lt;font style=&quot;font-size: 48px;&quot;&gt;Войти&lt;/font&gt;" style="strokeWidth=1;shadow=0;dashed=0;align=center;html=1;shape=mxgraph.mockup.buttons.button;strokeColor=#666666;fontColor=#ffffff;mainText=;buttonStyle=round;fontSize=17;fontStyle=1;fillColor=#008cff;whiteSpace=wrap;" vertex="1" parent="1">
          <mxGeometry x="147" y="683" width="557" height="144" as="geometry" />
        </mxCell>
        <mxCell id="f2NwAQb8BhlGTxGuKgZ1-6" value="&lt;font style=&quot;font-size: 24px;&quot;&gt;Забыли пароль?&lt;/font&gt;" style="strokeWidth=1;shadow=0;dashed=0;align=center;html=1;shape=mxgraph.mockup.buttons.button;strokeColor=#666666;fontColor=#ffffff;mainText=;buttonStyle=round;fontSize=17;fontStyle=1;fillColor=#008cff;whiteSpace=wrap;" vertex="1" parent="1">
          <mxGeometry x="147" y="870" width="272" height="105" as="geometry" />
        </mxCell>
        <mxCell id="f2NwAQb8BhlGTxGuKgZ1-7" value="&lt;font style=&quot;font-size: 24px;&quot;&gt;Регистрация&lt;/font&gt;" style="strokeWidth=1;shadow=0;dashed=0;align=center;html=1;shape=mxgraph.mockup.buttons.button;strokeColor=#666666;fontColor=#ffffff;mainText=;buttonStyle=round;fontSize=17;fontStyle=1;fillColor=#008cff;whiteSpace=wrap;" vertex="1" parent="1">
          <mxGeometry x="432" y="870" width="272" height="105" as="geometry" />
        </mxCell>
        <mxCell id="f2NwAQb8BhlGTxGuKgZ1-8" value="&lt;font style=&quot;font-size: 48px;&quot;&gt;Пароль&lt;/font&gt;" style="strokeWidth=1;shadow=0;dashed=0;align=center;html=1;shape=mxgraph.mockup.forms.pwField;strokeColor=#999999;mainText=;fontColor=#666666;fontSize=17;spacingLeft=3;" vertex="1" parent="1">
          <mxGeometry x="150" y="496" width="549" height="147" as="geometry" />
        </mxCell>
        <mxCell id="f2NwAQb8BhlGTxGuKgZ1-9" value="&lt;font style=&quot;font-size: 48px;&quot;&gt;Логин&lt;/font&gt;" style="strokeWidth=1;shadow=0;dashed=0;align=center;html=1;shape=mxgraph.mockup.forms.pwField;strokeColor=#999999;mainText=;fontColor=#666666;fontSize=17;spacingLeft=3;" vertex="1" parent="1">
          <mxGeometry x="151" y="309" width="549" height="147" as="geometry" />
        </mxCell>
        <mxCell id="f2NwAQb8BhlGTxGuKgZ1-10" value="" style="shape=mxgraph.mockup.markup.scratchOut;shadow=0;dashed=0;html=1;whiteSpace=wrap;strokeColor=#999999;strokeWidth=4;" vertex="1" parent="1">
          <mxGeometry x="217.5" y="78" width="416" height="184" as="geometry" />
        </mxCell>
        <mxCell id="f2NwAQb8BhlGTxGuKgZ1-11" value="&lt;font color=&quot;#035e46&quot; style=&quot;font-size: 72px;&quot;&gt;Logo&lt;/font&gt;" style="text;html=1;strokeColor=none;fillColor=none;align=center;verticalAlign=middle;whiteSpace=wrap;rounded=0;" vertex="1" parent="1">
          <mxGeometry x="307" y="122" width="235" height="96" as="geometry" />
        </mxCell>
        <mxCell id="f2NwAQb8BhlGTxGuKgZ1-13" value="&lt;font style=&quot;font-size: 48px;&quot;&gt;Пароль&lt;/font&gt;" style="strokeWidth=1;shadow=0;dashed=0;align=center;html=1;shape=mxgraph.mockup.forms.pwField;strokeColor=#999999;mainText=;fontColor=#666666;fontSize=17;spacingLeft=3;" vertex="1" parent="1">
          <mxGeometry x="1001" y="411" width="549" height="147" as="geometry" />
        </mxCell>
        <mxCell id="f2NwAQb8BhlGTxGuKgZ1-14" value="&lt;font style=&quot;font-size: 48px;&quot;&gt;Логин&lt;/font&gt;" style="strokeWidth=1;shadow=0;dashed=0;align=center;html=1;shape=mxgraph.mockup.forms.pwField;strokeColor=#999999;mainText=;fontColor=#666666;fontSize=17;spacingLeft=3;" vertex="1" parent="1">
          <mxGeometry x="1001" y="233" width="549" height="147" as="geometry" />
        </mxCell>
        <mxCell id="f2NwAQb8BhlGTxGuKgZ1-15" value="" style="shape=mxgraph.mockup.markup.scratchOut;shadow=0;dashed=0;html=1;whiteSpace=wrap;strokeColor=#999999;strokeWidth=4;" vertex="1" parent="1">
          <mxGeometry x="1107" y="51" width="336" height="154" as="geometry" />
        </mxCell>
        <mxCell id="f2NwAQb8BhlGTxGuKgZ1-16" value="&lt;font color=&quot;#035e46&quot; style=&quot;font-size: 72px;&quot;&gt;Logo&lt;/font&gt;" style="text;html=1;strokeColor=none;fillColor=none;align=center;verticalAlign=middle;whiteSpace=wrap;rounded=0;" vertex="1" parent="1">
          <mxGeometry x="1197" y="92" width="156.5" height="72" as="geometry" />
        </mxCell>
        <mxCell id="f2NwAQb8BhlGTxGuKgZ1-17" value="&lt;font style=&quot;font-size: 48px;&quot;&gt;Пароль&lt;/font&gt;" style="strokeWidth=1;shadow=0;dashed=0;align=center;html=1;shape=mxgraph.mockup.forms.pwField;strokeColor=#999999;mainText=;fontColor=#666666;fontSize=17;spacingLeft=3;" vertex="1" parent="1">
          <mxGeometry x="1001" y="589" width="549" height="147" as="geometry" />
        </mxCell>
        <mxCell id="f2NwAQb8BhlGTxGuKgZ1-18" value="&lt;span style=&quot;font-size: 48px;&quot;&gt;почта/телефон&lt;/span&gt;" style="strokeWidth=1;shadow=0;dashed=0;align=center;html=1;shape=mxgraph.mockup.forms.pwField;strokeColor=#999999;mainText=;fontColor=#666666;fontSize=17;spacingLeft=3;" vertex="1" parent="1">
          <mxGeometry x="1001" y="761" width="549" height="147" as="geometry" />
        </mxCell>
        <mxCell id="f2NwAQb8BhlGTxGuKgZ1-19" value="&lt;font style=&quot;font-size: 48px;&quot;&gt;Зарегестрироваться&lt;/font&gt;" style="strokeWidth=1;shadow=0;dashed=0;align=center;html=1;shape=mxgraph.mockup.buttons.button;strokeColor=#666666;fontColor=#ffffff;mainText=;buttonStyle=round;fontSize=17;fontStyle=1;fillColor=#008cff;whiteSpace=wrap;" vertex="1" parent="1">
          <mxGeometry x="997" y="933" width="557" height="144" as="geometry" />
        </mxCell>
        <mxCell id="f2NwAQb8BhlGTxGuKgZ1-48" value="" style="verticalLabelPosition=bottom;shadow=0;dashed=0;align=center;html=1;verticalAlign=top;strokeWidth=1;shape=mxgraph.mockup.graphics.simpleIcon;strokeColor=#999999;fillColor=#ffffff;" vertex="1" parent="1">
          <mxGeometry x="1813" y="352" width="120" height="120" as="geometry" />
        </mxCell>
        <mxCell id="f2NwAQb8BhlGTxGuKgZ1-57" value="" style="strokeWidth=1;shadow=0;dashed=0;align=center;html=1;shape=mxgraph.mockup.forms.rrect;rSize=5;strokeColor=#999999;fillColor=#ffffff;" vertex="1" parent="1">
          <mxGeometry x="2261" y="64" width="178" height="129" as="geometry" />
        </mxCell>
        <mxCell id="f2NwAQb8BhlGTxGuKgZ1-58" value="October 2014" style="strokeWidth=1;shadow=0;dashed=0;align=center;html=1;shape=mxgraph.mockup.forms.anchor;fontColor=#999999;" vertex="1" parent="f2NwAQb8BhlGTxGuKgZ1-57">
          <mxGeometry x="33.375" y="5.897142857142858" width="111.25" height="14.742857142857146" as="geometry" />
        </mxCell>
        <mxCell id="f2NwAQb8BhlGTxGuKgZ1-59" value="&lt;" style="strokeWidth=1;shadow=0;dashed=0;align=center;html=1;shape=mxgraph.mockup.forms.rrect;rSize=4;strokeColor=#999999;fontColor=#008cff;fontSize=19;fontStyle=1;" vertex="1" parent="f2NwAQb8BhlGTxGuKgZ1-57">
          <mxGeometry x="8.9" y="5.897142857142858" width="27.8125" height="14.742857142857146" as="geometry" />
        </mxCell>
        <mxCell id="f2NwAQb8BhlGTxGuKgZ1-60" value="&gt;" style="strokeWidth=1;shadow=0;dashed=0;align=center;html=1;shape=mxgraph.mockup.forms.rrect;rSize=4;strokeColor=#999999;fontColor=#008cff;fontSize=19;fontStyle=1;" vertex="1" parent="f2NwAQb8BhlGTxGuKgZ1-57">
          <mxGeometry x="141.2875" y="5.897142857142858" width="27.8125" height="14.742857142857146" as="geometry" />
        </mxCell>
        <mxCell id="f2NwAQb8BhlGTxGuKgZ1-61" value="Mo" style="strokeWidth=1;shadow=0;dashed=0;align=center;html=1;shape=mxgraph.mockup.forms.anchor;fontColor=#999999;" vertex="1" parent="f2NwAQb8BhlGTxGuKgZ1-57">
          <mxGeometry x="11.125" y="20.64" width="22.25" height="14.742857142857146" as="geometry" />
        </mxCell>
        <mxCell id="f2NwAQb8BhlGTxGuKgZ1-62" value="Tu" style="strokeWidth=1;shadow=0;dashed=0;align=center;html=1;shape=mxgraph.mockup.forms.anchor;fontColor=#999999;" vertex="1" parent="f2NwAQb8BhlGTxGuKgZ1-57">
          <mxGeometry x="33.375" y="20.64" width="22.25" height="14.742857142857146" as="geometry" />
        </mxCell>
        <mxCell id="f2NwAQb8BhlGTxGuKgZ1-63" value="We" style="strokeWidth=1;shadow=0;dashed=0;align=center;html=1;shape=mxgraph.mockup.forms.anchor;fontColor=#999999;" vertex="1" parent="f2NwAQb8BhlGTxGuKgZ1-57">
          <mxGeometry x="55.625" y="20.64" width="22.25" height="14.742857142857146" as="geometry" />
        </mxCell>
        <mxCell id="f2NwAQb8BhlGTxGuKgZ1-64" value="Th" style="strokeWidth=1;shadow=0;dashed=0;align=center;html=1;shape=mxgraph.mockup.forms.anchor;fontColor=#999999;" vertex="1" parent="f2NwAQb8BhlGTxGuKgZ1-57">
          <mxGeometry x="77.87500000000001" y="20.64" width="22.25" height="14.742857142857146" as="geometry" />
        </mxCell>
        <mxCell id="f2NwAQb8BhlGTxGuKgZ1-65" value="Fr" style="strokeWidth=1;shadow=0;dashed=0;align=center;html=1;shape=mxgraph.mockup.forms.anchor;fontColor=#999999;" vertex="1" parent="f2NwAQb8BhlGTxGuKgZ1-57">
          <mxGeometry x="100.125" y="20.64" width="22.25" height="14.742857142857146" as="geometry" />
        </mxCell>
        <mxCell id="f2NwAQb8BhlGTxGuKgZ1-66" value="Sa" style="strokeWidth=1;shadow=0;dashed=0;align=center;html=1;shape=mxgraph.mockup.forms.anchor;fontColor=#999999;" vertex="1" parent="f2NwAQb8BhlGTxGuKgZ1-57">
          <mxGeometry x="122.37499999999999" y="20.64" width="22.25" height="14.742857142857146" as="geometry" />
        </mxCell>
        <mxCell id="f2NwAQb8BhlGTxGuKgZ1-67" value="Su" style="strokeWidth=1;shadow=0;dashed=0;align=center;html=1;shape=mxgraph.mockup.forms.anchor;fontColor=#999999;" vertex="1" parent="f2NwAQb8BhlGTxGuKgZ1-57">
          <mxGeometry x="144.625" y="20.64" width="22.25" height="14.742857142857146" as="geometry" />
        </mxCell>
        <mxCell id="f2NwAQb8BhlGTxGuKgZ1-68" value="1" style="strokeWidth=1;shadow=0;dashed=0;align=center;html=1;shape=mxgraph.mockup.forms.rrect;rSize=0;strokeColor=#999999;fontColor=#999999;" vertex="1" parent="f2NwAQb8BhlGTxGuKgZ1-57">
          <mxGeometry x="11.125" y="35.38285714285714" width="22.25" height="14.742857142857146" as="geometry" />
        </mxCell>
        <mxCell id="f2NwAQb8BhlGTxGuKgZ1-69" value="2" style="strokeWidth=1;shadow=0;dashed=0;align=center;html=1;shape=mxgraph.mockup.forms.rrect;rSize=0;strokeColor=#999999;fontColor=#999999;" vertex="1" parent="f2NwAQb8BhlGTxGuKgZ1-57">
          <mxGeometry x="33.375" y="35.38285714285714" width="22.25" height="14.742857142857146" as="geometry" />
        </mxCell>
        <mxCell id="f2NwAQb8BhlGTxGuKgZ1-70" value="3" style="strokeWidth=1;shadow=0;dashed=0;align=center;html=1;shape=mxgraph.mockup.forms.rrect;rSize=0;strokeColor=#999999;fontColor=#999999;" vertex="1" parent="f2NwAQb8BhlGTxGuKgZ1-57">
          <mxGeometry x="55.625" y="35.38285714285714" width="22.25" height="14.742857142857146" as="geometry" />
        </mxCell>
        <mxCell id="f2NwAQb8BhlGTxGuKgZ1-71" value="4" style="strokeWidth=1;shadow=0;dashed=0;align=center;html=1;shape=mxgraph.mockup.forms.rrect;rSize=0;strokeColor=#999999;fontColor=#999999;" vertex="1" parent="f2NwAQb8BhlGTxGuKgZ1-57">
          <mxGeometry x="77.87500000000001" y="35.38285714285714" width="22.25" height="14.742857142857146" as="geometry" />
        </mxCell>
        <mxCell id="f2NwAQb8BhlGTxGuKgZ1-72" value="5" style="strokeWidth=1;shadow=0;dashed=0;align=center;html=1;shape=mxgraph.mockup.forms.rrect;rSize=0;strokeColor=#999999;fontColor=#999999;" vertex="1" parent="f2NwAQb8BhlGTxGuKgZ1-57">
          <mxGeometry x="100.125" y="35.38285714285714" width="22.25" height="14.742857142857146" as="geometry" />
        </mxCell>
        <mxCell id="f2NwAQb8BhlGTxGuKgZ1-73" value="6" style="strokeWidth=1;shadow=0;dashed=0;align=center;html=1;shape=mxgraph.mockup.forms.rrect;rSize=0;strokeColor=#999999;fontColor=#999999;" vertex="1" parent="f2NwAQb8BhlGTxGuKgZ1-57">
          <mxGeometry x="122.37499999999999" y="35.38285714285714" width="22.25" height="14.742857142857146" as="geometry" />
        </mxCell>
        <mxCell id="f2NwAQb8BhlGTxGuKgZ1-74" value="7" style="strokeWidth=1;shadow=0;dashed=0;align=center;html=1;shape=mxgraph.mockup.forms.rrect;rSize=0;strokeColor=#999999;fontColor=#999999;" vertex="1" parent="f2NwAQb8BhlGTxGuKgZ1-57">
          <mxGeometry x="144.625" y="35.38285714285714" width="22.25" height="14.742857142857146" as="geometry" />
        </mxCell>
        <mxCell id="f2NwAQb8BhlGTxGuKgZ1-75" value="8" style="strokeWidth=1;shadow=0;dashed=0;align=center;html=1;shape=mxgraph.mockup.forms.rrect;rSize=0;strokeColor=#999999;fontColor=#999999;" vertex="1" parent="f2NwAQb8BhlGTxGuKgZ1-57">
          <mxGeometry x="11.125" y="50.12571428571428" width="22.25" height="14.742857142857146" as="geometry" />
        </mxCell>
        <mxCell id="f2NwAQb8BhlGTxGuKgZ1-76" value="9" style="strokeWidth=1;shadow=0;dashed=0;align=center;html=1;shape=mxgraph.mockup.forms.rrect;rSize=0;strokeColor=#999999;fontColor=#999999;" vertex="1" parent="f2NwAQb8BhlGTxGuKgZ1-57">
          <mxGeometry x="33.375" y="50.12571428571428" width="22.25" height="14.742857142857146" as="geometry" />
        </mxCell>
        <mxCell id="f2NwAQb8BhlGTxGuKgZ1-77" value="10" style="strokeWidth=1;shadow=0;dashed=0;align=center;html=1;shape=mxgraph.mockup.forms.rrect;rSize=0;strokeColor=#999999;fontColor=#999999;" vertex="1" parent="f2NwAQb8BhlGTxGuKgZ1-57">
          <mxGeometry x="55.625" y="50.12571428571428" width="22.25" height="14.742857142857146" as="geometry" />
        </mxCell>
        <mxCell id="f2NwAQb8BhlGTxGuKgZ1-78" value="11" style="strokeWidth=1;shadow=0;dashed=0;align=center;html=1;shape=mxgraph.mockup.forms.rrect;rSize=0;strokeColor=#999999;fontColor=#999999;" vertex="1" parent="f2NwAQb8BhlGTxGuKgZ1-57">
          <mxGeometry x="77.87500000000001" y="50.12571428571428" width="22.25" height="14.742857142857146" as="geometry" />
        </mxCell>
        <mxCell id="f2NwAQb8BhlGTxGuKgZ1-79" value="12" style="strokeWidth=1;shadow=0;dashed=0;align=center;html=1;shape=mxgraph.mockup.forms.rrect;rSize=0;strokeColor=#999999;fontColor=#999999;" vertex="1" parent="f2NwAQb8BhlGTxGuKgZ1-57">
          <mxGeometry x="100.125" y="50.12571428571428" width="22.25" height="14.742857142857146" as="geometry" />
        </mxCell>
        <mxCell id="f2NwAQb8BhlGTxGuKgZ1-80" value="13" style="strokeWidth=1;shadow=0;dashed=0;align=center;html=1;shape=mxgraph.mockup.forms.rrect;rSize=0;strokeColor=#999999;fontColor=#999999;" vertex="1" parent="f2NwAQb8BhlGTxGuKgZ1-57">
          <mxGeometry x="122.37499999999999" y="50.12571428571428" width="22.25" height="14.742857142857146" as="geometry" />
        </mxCell>
        <mxCell id="f2NwAQb8BhlGTxGuKgZ1-81" value="14" style="strokeWidth=1;shadow=0;dashed=0;align=center;html=1;shape=mxgraph.mockup.forms.rrect;rSize=0;strokeColor=#999999;fontColor=#999999;" vertex="1" parent="f2NwAQb8BhlGTxGuKgZ1-57">
          <mxGeometry x="144.625" y="50.12571428571428" width="22.25" height="14.742857142857146" as="geometry" />
        </mxCell>
        <mxCell id="f2NwAQb8BhlGTxGuKgZ1-82" value="15" style="strokeWidth=1;shadow=0;dashed=0;align=center;html=1;shape=mxgraph.mockup.forms.rrect;rSize=0;strokeColor=#999999;fontColor=#999999;" vertex="1" parent="f2NwAQb8BhlGTxGuKgZ1-57">
          <mxGeometry x="11.125" y="64.86857142857144" width="22.25" height="14.742857142857146" as="geometry" />
        </mxCell>
        <mxCell id="f2NwAQb8BhlGTxGuKgZ1-83" value="16" style="strokeWidth=1;shadow=0;dashed=0;align=center;html=1;shape=mxgraph.mockup.forms.rrect;rSize=0;strokeColor=#999999;fontColor=#999999;" vertex="1" parent="f2NwAQb8BhlGTxGuKgZ1-57">
          <mxGeometry x="33.375" y="64.86857142857144" width="22.25" height="14.742857142857146" as="geometry" />
        </mxCell>
        <mxCell id="f2NwAQb8BhlGTxGuKgZ1-84" value="17" style="strokeWidth=1;shadow=0;dashed=0;align=center;html=1;shape=mxgraph.mockup.forms.rrect;rSize=0;strokeColor=#999999;fontColor=#999999;" vertex="1" parent="f2NwAQb8BhlGTxGuKgZ1-57">
          <mxGeometry x="55.625" y="64.86857142857144" width="22.25" height="14.742857142857146" as="geometry" />
        </mxCell>
        <mxCell id="f2NwAQb8BhlGTxGuKgZ1-85" value="18" style="strokeWidth=1;shadow=0;dashed=0;align=center;html=1;shape=mxgraph.mockup.forms.rrect;rSize=0;strokeColor=#999999;fontColor=#999999;" vertex="1" parent="f2NwAQb8BhlGTxGuKgZ1-57">
          <mxGeometry x="77.87500000000001" y="64.86857142857144" width="22.25" height="14.742857142857146" as="geometry" />
        </mxCell>
        <mxCell id="f2NwAQb8BhlGTxGuKgZ1-86" value="19" style="strokeWidth=1;shadow=0;dashed=0;align=center;html=1;shape=mxgraph.mockup.forms.rrect;rSize=0;strokeColor=#999999;fontColor=#999999;" vertex="1" parent="f2NwAQb8BhlGTxGuKgZ1-57">
          <mxGeometry x="100.125" y="64.86857142857144" width="22.25" height="14.742857142857146" as="geometry" />
        </mxCell>
        <mxCell id="f2NwAQb8BhlGTxGuKgZ1-87" value="20" style="strokeWidth=1;shadow=0;dashed=0;align=center;html=1;shape=mxgraph.mockup.forms.rrect;rSize=0;strokeColor=#999999;fontColor=#999999;" vertex="1" parent="f2NwAQb8BhlGTxGuKgZ1-57">
          <mxGeometry x="122.37499999999999" y="64.86857142857144" width="22.25" height="14.742857142857146" as="geometry" />
        </mxCell>
        <mxCell id="f2NwAQb8BhlGTxGuKgZ1-88" value="21" style="strokeWidth=1;shadow=0;dashed=0;align=center;html=1;shape=mxgraph.mockup.forms.rrect;rSize=0;strokeColor=#999999;fontColor=#999999;" vertex="1" parent="f2NwAQb8BhlGTxGuKgZ1-57">
          <mxGeometry x="144.625" y="64.86857142857144" width="22.25" height="14.742857142857146" as="geometry" />
        </mxCell>
        <mxCell id="f2NwAQb8BhlGTxGuKgZ1-89" value="22" style="strokeWidth=1;shadow=0;dashed=0;align=center;html=1;shape=mxgraph.mockup.forms.rrect;rSize=0;strokeColor=#999999;fontColor=#999999;" vertex="1" parent="f2NwAQb8BhlGTxGuKgZ1-57">
          <mxGeometry x="11.125" y="79.61142857142859" width="22.25" height="14.742857142857146" as="geometry" />
        </mxCell>
        <mxCell id="f2NwAQb8BhlGTxGuKgZ1-90" value="23" style="strokeWidth=1;shadow=0;dashed=0;align=center;html=1;shape=mxgraph.mockup.forms.rrect;rSize=0;strokeColor=#999999;fontColor=#999999;" vertex="1" parent="f2NwAQb8BhlGTxGuKgZ1-57">
          <mxGeometry x="33.375" y="79.61142857142859" width="22.25" height="14.742857142857146" as="geometry" />
        </mxCell>
        <mxCell id="f2NwAQb8BhlGTxGuKgZ1-91" value="25" style="strokeWidth=1;shadow=0;dashed=0;align=center;html=1;shape=mxgraph.mockup.forms.rrect;rSize=0;strokeColor=#999999;fontColor=#999999;" vertex="1" parent="f2NwAQb8BhlGTxGuKgZ1-57">
          <mxGeometry x="77.87500000000001" y="79.61142857142859" width="22.25" height="14.742857142857146" as="geometry" />
        </mxCell>
        <mxCell id="f2NwAQb8BhlGTxGuKgZ1-92" value="26" style="strokeWidth=1;shadow=0;dashed=0;align=center;html=1;shape=mxgraph.mockup.forms.rrect;rSize=0;strokeColor=#999999;fontColor=#999999;" vertex="1" parent="f2NwAQb8BhlGTxGuKgZ1-57">
          <mxGeometry x="100.125" y="79.61142857142859" width="22.25" height="14.742857142857146" as="geometry" />
        </mxCell>
        <mxCell id="f2NwAQb8BhlGTxGuKgZ1-93" value="27" style="strokeWidth=1;shadow=0;dashed=0;align=center;html=1;shape=mxgraph.mockup.forms.rrect;rSize=0;strokeColor=#999999;fontColor=#999999;" vertex="1" parent="f2NwAQb8BhlGTxGuKgZ1-57">
          <mxGeometry x="122.37499999999999" y="79.61142857142859" width="22.25" height="14.742857142857146" as="geometry" />
        </mxCell>
        <mxCell id="f2NwAQb8BhlGTxGuKgZ1-94" value="28" style="strokeWidth=1;shadow=0;dashed=0;align=center;html=1;shape=mxgraph.mockup.forms.rrect;rSize=0;strokeColor=#999999;fontColor=#999999;" vertex="1" parent="f2NwAQb8BhlGTxGuKgZ1-57">
          <mxGeometry x="144.625" y="79.61142857142859" width="22.25" height="14.742857142857146" as="geometry" />
        </mxCell>
        <mxCell id="f2NwAQb8BhlGTxGuKgZ1-95" value="29" style="strokeWidth=1;shadow=0;dashed=0;align=center;html=1;shape=mxgraph.mockup.forms.rrect;rSize=0;strokeColor=#999999;fontColor=#999999;" vertex="1" parent="f2NwAQb8BhlGTxGuKgZ1-57">
          <mxGeometry x="11.125" y="94.35428571428572" width="22.25" height="14.742857142857146" as="geometry" />
        </mxCell>
        <mxCell id="f2NwAQb8BhlGTxGuKgZ1-96" value="30" style="strokeWidth=1;shadow=0;dashed=0;align=center;html=1;shape=mxgraph.mockup.forms.rrect;rSize=0;strokeColor=#999999;fontColor=#999999;" vertex="1" parent="f2NwAQb8BhlGTxGuKgZ1-57">
          <mxGeometry x="33.375" y="94.35428571428572" width="22.25" height="14.742857142857146" as="geometry" />
        </mxCell>
        <mxCell id="f2NwAQb8BhlGTxGuKgZ1-97" value="31" style="strokeWidth=1;shadow=0;dashed=0;align=center;html=1;shape=mxgraph.mockup.forms.rrect;rSize=0;strokeColor=#999999;fontColor=#999999;" vertex="1" parent="f2NwAQb8BhlGTxGuKgZ1-57">
          <mxGeometry x="55.625" y="94.35428571428572" width="22.25" height="14.742857142857146" as="geometry" />
        </mxCell>
        <mxCell id="f2NwAQb8BhlGTxGuKgZ1-98" value="1" style="strokeWidth=1;shadow=0;dashed=0;align=center;html=1;shape=mxgraph.mockup.forms.rrect;rSize=0;strokeColor=#999999;fontColor=#999999;fillColor=#ddeeff;" vertex="1" parent="f2NwAQb8BhlGTxGuKgZ1-57">
          <mxGeometry x="77.87500000000001" y="94.35428571428572" width="22.25" height="14.742857142857146" as="geometry" />
        </mxCell>
        <mxCell id="f2NwAQb8BhlGTxGuKgZ1-99" value="2" style="strokeWidth=1;shadow=0;dashed=0;align=center;html=1;shape=mxgraph.mockup.forms.rrect;rSize=0;strokeColor=#999999;fontColor=#999999;fillColor=#ddeeff;" vertex="1" parent="f2NwAQb8BhlGTxGuKgZ1-57">
          <mxGeometry x="100.125" y="94.35428571428572" width="22.25" height="14.742857142857146" as="geometry" />
        </mxCell>
        <mxCell id="f2NwAQb8BhlGTxGuKgZ1-100" value="3" style="strokeWidth=1;shadow=0;dashed=0;align=center;html=1;shape=mxgraph.mockup.forms.rrect;rSize=0;strokeColor=#999999;fontColor=#999999;fillColor=#ddeeff;" vertex="1" parent="f2NwAQb8BhlGTxGuKgZ1-57">
          <mxGeometry x="122.37499999999999" y="94.35428571428572" width="22.25" height="14.742857142857146" as="geometry" />
        </mxCell>
        <mxCell id="f2NwAQb8BhlGTxGuKgZ1-101" value="4" style="strokeWidth=1;shadow=0;dashed=0;align=center;html=1;shape=mxgraph.mockup.forms.rrect;rSize=0;strokeColor=#999999;fontColor=#999999;fillColor=#ddeeff;" vertex="1" parent="f2NwAQb8BhlGTxGuKgZ1-57">
          <mxGeometry x="144.625" y="94.35428571428572" width="22.25" height="14.742857142857146" as="geometry" />
        </mxCell>
        <mxCell id="f2NwAQb8BhlGTxGuKgZ1-102" value="5" style="strokeWidth=1;shadow=0;dashed=0;align=center;html=1;shape=mxgraph.mockup.forms.rrect;rSize=0;strokeColor=#999999;fontColor=#999999;fillColor=#ddeeff;" vertex="1" parent="f2NwAQb8BhlGTxGuKgZ1-57">
          <mxGeometry x="11.125" y="109.09714285714287" width="22.25" height="14.742857142857146" as="geometry" />
        </mxCell>
        <mxCell id="f2NwAQb8BhlGTxGuKgZ1-103" value="6" style="strokeWidth=1;shadow=0;dashed=0;align=center;html=1;shape=mxgraph.mockup.forms.rrect;rSize=0;strokeColor=#999999;fontColor=#999999;fillColor=#ddeeff;" vertex="1" parent="f2NwAQb8BhlGTxGuKgZ1-57">
          <mxGeometry x="33.375" y="109.09714285714287" width="22.25" height="14.742857142857146" as="geometry" />
        </mxCell>
        <mxCell id="f2NwAQb8BhlGTxGuKgZ1-104" value="7" style="strokeWidth=1;shadow=0;dashed=0;align=center;html=1;shape=mxgraph.mockup.forms.rrect;rSize=0;strokeColor=#999999;fontColor=#999999;fillColor=#ddeeff;" vertex="1" parent="f2NwAQb8BhlGTxGuKgZ1-57">
          <mxGeometry x="55.625" y="109.09714285714287" width="22.25" height="14.742857142857146" as="geometry" />
        </mxCell>
        <mxCell id="f2NwAQb8BhlGTxGuKgZ1-105" value="8" style="strokeWidth=1;shadow=0;dashed=0;align=center;html=1;shape=mxgraph.mockup.forms.rrect;rSize=0;strokeColor=#999999;fontColor=#999999;fillColor=#ddeeff;" vertex="1" parent="f2NwAQb8BhlGTxGuKgZ1-57">
          <mxGeometry x="77.87500000000001" y="109.09714285714287" width="22.25" height="14.742857142857146" as="geometry" />
        </mxCell>
        <mxCell id="f2NwAQb8BhlGTxGuKgZ1-106" value="9" style="strokeWidth=1;shadow=0;dashed=0;align=center;html=1;shape=mxgraph.mockup.forms.rrect;rSize=0;strokeColor=#999999;fontColor=#999999;fillColor=#ddeeff;" vertex="1" parent="f2NwAQb8BhlGTxGuKgZ1-57">
          <mxGeometry x="100.125" y="109.09714285714287" width="22.25" height="14.742857142857146" as="geometry" />
        </mxCell>
        <mxCell id="f2NwAQb8BhlGTxGuKgZ1-107" value="10" style="strokeWidth=1;shadow=0;dashed=0;align=center;html=1;shape=mxgraph.mockup.forms.rrect;rSize=0;strokeColor=#999999;fontColor=#999999;fillColor=#ddeeff;" vertex="1" parent="f2NwAQb8BhlGTxGuKgZ1-57">
          <mxGeometry x="122.37499999999999" y="109.09714285714287" width="22.25" height="14.742857142857146" as="geometry" />
        </mxCell>
        <mxCell id="f2NwAQb8BhlGTxGuKgZ1-108" value="11" style="strokeWidth=1;shadow=0;dashed=0;align=center;html=1;shape=mxgraph.mockup.forms.rrect;rSize=0;strokeColor=#999999;fontColor=#999999;fillColor=#ddeeff;" vertex="1" parent="f2NwAQb8BhlGTxGuKgZ1-57">
          <mxGeometry x="144.625" y="109.09714285714287" width="22.25" height="14.742857142857146" as="geometry" />
        </mxCell>
        <mxCell id="f2NwAQb8BhlGTxGuKgZ1-109" value="24" style="strokeWidth=1;shadow=0;dashed=0;align=center;html=1;shape=mxgraph.mockup.forms.rrect;rSize=0;strokeColor=#ff0000;fontColor=#ffffff;strokeWidth=2;fillColor=#008cff;" vertex="1" parent="f2NwAQb8BhlGTxGuKgZ1-57">
          <mxGeometry x="55.625" y="79.61142857142859" width="22.25" height="14.742857142857146" as="geometry" />
        </mxCell>
        <mxCell id="f2NwAQb8BhlGTxGuKgZ1-112" value="&lt;font color=&quot;#035e46&quot; style=&quot;font-size: 36px;&quot;&gt;Выберете дату и время&lt;/font&gt;" style="text;html=1;strokeColor=none;fillColor=none;align=center;verticalAlign=middle;whiteSpace=wrap;rounded=0;" vertex="1" parent="1">
          <mxGeometry x="1717" y="64" width="511" height="99" as="geometry" />
        </mxCell>
        <mxCell id="f2NwAQb8BhlGTxGuKgZ1-113" value="&lt;font color=&quot;#035e46&quot; style=&quot;font-size: 36px;&quot;&gt;Карта зала&lt;br&gt;Доступные столики&lt;br&gt;&lt;/font&gt;" style="text;html=1;strokeColor=none;fillColor=none;align=center;verticalAlign=middle;whiteSpace=wrap;rounded=0;" vertex="1" parent="1">
          <mxGeometry x="1870" y="205" width="511" height="99" as="geometry" />
        </mxCell>
        <mxCell id="f2NwAQb8BhlGTxGuKgZ1-114" value="" style="verticalLabelPosition=bottom;shadow=0;dashed=0;align=center;html=1;verticalAlign=top;strokeWidth=1;shape=mxgraph.mockup.graphics.simpleIcon;strokeColor=#999999;fillColor=#ffffff;" vertex="1" parent="1">
          <mxGeometry x="1979" y="352" width="120" height="120" as="geometry" />
        </mxCell>
        <mxCell id="f2NwAQb8BhlGTxGuKgZ1-115" value="" style="verticalLabelPosition=bottom;shadow=0;dashed=0;align=center;html=1;verticalAlign=top;strokeWidth=1;shape=mxgraph.mockup.graphics.simpleIcon;strokeColor=#999999;fillColor=#ffffff;" vertex="1" parent="1">
          <mxGeometry x="2145" y="352" width="120" height="120" as="geometry" />
        </mxCell>
        <mxCell id="f2NwAQb8BhlGTxGuKgZ1-116" value="" style="verticalLabelPosition=bottom;shadow=0;dashed=0;align=center;html=1;verticalAlign=top;strokeWidth=1;shape=mxgraph.mockup.graphics.simpleIcon;strokeColor=#999999;fillColor=#ffffff;" vertex="1" parent="1">
          <mxGeometry x="2311" y="352" width="120" height="120" as="geometry" />
        </mxCell>
        <mxCell id="f2NwAQb8BhlGTxGuKgZ1-117" value="" style="verticalLabelPosition=bottom;shadow=0;dashed=0;align=center;html=1;verticalAlign=top;strokeWidth=1;shape=mxgraph.mockup.graphics.simpleIcon;strokeColor=#999999;fillColor=#ffffff;" vertex="1" parent="1">
          <mxGeometry x="1813" y="520" width="120" height="120" as="geometry" />
        </mxCell>
        <mxCell id="f2NwAQb8BhlGTxGuKgZ1-118" value="" style="verticalLabelPosition=bottom;shadow=0;dashed=0;align=center;html=1;verticalAlign=top;strokeWidth=1;shape=mxgraph.mockup.graphics.simpleIcon;strokeColor=#999999;fillColor=#ffffff;" vertex="1" parent="1">
          <mxGeometry x="1979" y="520" width="120" height="120" as="geometry" />
        </mxCell>
        <mxCell id="f2NwAQb8BhlGTxGuKgZ1-119" value="" style="verticalLabelPosition=bottom;shadow=0;dashed=0;align=center;html=1;verticalAlign=top;strokeWidth=1;shape=mxgraph.mockup.graphics.simpleIcon;strokeColor=#999999;fillColor=#ffffff;" vertex="1" parent="1">
          <mxGeometry x="2145" y="520" width="120" height="120" as="geometry" />
        </mxCell>
        <mxCell id="f2NwAQb8BhlGTxGuKgZ1-120" value="" style="verticalLabelPosition=bottom;shadow=0;dashed=0;align=center;html=1;verticalAlign=top;strokeWidth=1;shape=mxgraph.mockup.graphics.simpleIcon;strokeColor=#999999;fillColor=#ffffff;" vertex="1" parent="1">
          <mxGeometry x="2314" y="520" width="120" height="120" as="geometry" />
        </mxCell>
        <mxCell id="f2NwAQb8BhlGTxGuKgZ1-121" value="" style="verticalLabelPosition=bottom;shadow=0;dashed=0;align=center;html=1;verticalAlign=top;strokeWidth=1;shape=mxgraph.mockup.graphics.simpleIcon;strokeColor=#999999;fillColor=#ffffff;" vertex="1" parent="1">
          <mxGeometry x="1813" y="683" width="120" height="120" as="geometry" />
        </mxCell>
        <mxCell id="f2NwAQb8BhlGTxGuKgZ1-122" value="" style="verticalLabelPosition=bottom;shadow=0;dashed=0;align=center;html=1;verticalAlign=top;strokeWidth=1;shape=mxgraph.mockup.graphics.simpleIcon;strokeColor=#999999;fillColor=#ffffff;" vertex="1" parent="1">
          <mxGeometry x="1979" y="683" width="120" height="120" as="geometry" />
        </mxCell>
        <mxCell id="f2NwAQb8BhlGTxGuKgZ1-123" value="" style="verticalLabelPosition=bottom;shadow=0;dashed=0;align=center;html=1;verticalAlign=top;strokeWidth=1;shape=mxgraph.mockup.graphics.simpleIcon;strokeColor=#999999;fillColor=#ffffff;" vertex="1" parent="1">
          <mxGeometry x="2145" y="683" width="120" height="120" as="geometry" />
        </mxCell>
        <mxCell id="f2NwAQb8BhlGTxGuKgZ1-124" value="" style="verticalLabelPosition=bottom;shadow=0;dashed=0;align=center;html=1;verticalAlign=top;strokeWidth=1;shape=mxgraph.mockup.graphics.simpleIcon;strokeColor=#999999;fillColor=#ffffff;" vertex="1" parent="1">
          <mxGeometry x="2316" y="683" width="120" height="120" as="geometry" />
        </mxCell>
        <mxCell id="f2NwAQb8BhlGTxGuKgZ1-125" value="" style="verticalLabelPosition=bottom;shadow=0;dashed=0;align=center;html=1;verticalAlign=top;strokeWidth=1;shape=mxgraph.mockup.graphics.simpleIcon;strokeColor=#999999;fillColor=#ffffff;" vertex="1" parent="1">
          <mxGeometry x="1813" y="852" width="120" height="120" as="geometry" />
        </mxCell>
        <mxCell id="f2NwAQb8BhlGTxGuKgZ1-126" value="" style="verticalLabelPosition=bottom;shadow=0;dashed=0;align=center;html=1;verticalAlign=top;strokeWidth=1;shape=mxgraph.mockup.graphics.simpleIcon;strokeColor=#999999;fillColor=#ffffff;" vertex="1" parent="1">
          <mxGeometry x="1979" y="852" width="120" height="120" as="geometry" />
        </mxCell>
        <mxCell id="f2NwAQb8BhlGTxGuKgZ1-127" value="" style="verticalLabelPosition=bottom;shadow=0;dashed=0;align=center;html=1;verticalAlign=top;strokeWidth=1;shape=mxgraph.mockup.graphics.simpleIcon;strokeColor=#999999;fillColor=#ffffff;" vertex="1" parent="1">
          <mxGeometry x="2145" y="855" width="120" height="120" as="geometry" />
        </mxCell>
        <mxCell id="f2NwAQb8BhlGTxGuKgZ1-128" value="" style="verticalLabelPosition=bottom;shadow=0;dashed=0;align=center;html=1;verticalAlign=top;strokeWidth=1;shape=mxgraph.mockup.graphics.simpleIcon;strokeColor=#999999;fillColor=#ffffff;" vertex="1" parent="1">
          <mxGeometry x="2319" y="849" width="120" height="120" as="geometry" />
        </mxCell>
      </root>
    </mxGraphModel>
  </diagram>
</mxfile>
